<?xml version="1.0" encoding="UTF-8"?>
<svg version="1.1" xmlns="http://www.w3.org/2000/svg" width="128" height="128">
<path d="M0 0 C0.495 5.94 0.495 5.94 1 12 C-0.815 12.391875 -2.63 12.78375 -4.5 13.1875 C-13.22805331 15.39518407 -20.09105656 19.25897381 -25 27 C-28.03418919 33.30395208 -29.73565688 39.01125967 -29 46 C-28.34 47.32 -27.68 48.64 -27 50 C-23.04 47.525 -23.04 47.525 -19 45 C-19.5259375 43.4221875 -19.5259375 43.4221875 -20.0625 41.8125 C-21.00078034 37.99682661 -21.1593784 36.63198637 -20 33 C-14.6296061 25.44931798 -8.90772374 21.89240624 0.1171875 20.20703125 C3.70445061 19.94940937 5.89643945 20.20086995 8.8125 22.3125 C10 24 10 24 9.7734375 25.9140625 C8.00546284 30.68223659 3.01352594 33.51200603 -1.375 35.625 C-4.07468638 36.73697295 -4.07468638 36.73697295 -5.0625 38.875 C-4.97012839 42.01563484 -3.96313413 43.57880124 -2 46 C0.28757567 47.34107361 0.28757567 47.34107361 3 47 C4.41790898 45.81291341 5.82990034 44.61582225 7.17578125 43.34765625 C10.6339891 40.79287743 14.87432941 40.0028804 19 39 C20.625 41.75 20.625 41.75 22 45 C21.29296875 46.890625 21.29296875 46.890625 20 49 C19.50886719 49.804375 19.01773438 50.60875 18.51171875 51.4375 C13.85667134 57.97649594 9.76867498 60.47606081 2.05078125 62.57421875 C-1.80771076 63.11272788 -4.51172841 62.98464823 -7.80078125 60.80859375 C-9.20052083 59.5390625 -10.60026042 58.26953125 -12 57 C-13.11375 57.66 -14.2275 58.32 -15.375 59 C-18.75 61 -18.75 61 -21 61 C-17.67534535 66.20380728 -13.7177654 68.17803951 -8 70 C-4.00352648 70.84919065 -0.05297079 71.44096955 4 72 C4.495 77.94 4.495 77.94 5 84 C-7.82107644 84.49952246 -18.79917572 82.09260478 -28.734375 73.5 C-29.86901192 72.37811181 -30.94429688 71.19646354 -32 70 C-32.7425 70.309375 -33.485 70.61875 -34.25 70.9375 C-36.5123958 71.81160747 -38.64974079 72.44256673 -41 73 C-32.28791316 84.10646832 -21.06841432 91.4640704 -6.87451172 93.27050781 C8.89921527 94.54724176 23.01478736 90.09128465 35.125 79.875 C40.15709167 75.21245256 43.64302186 69.94696459 47 64 C48.4589426 64.47730838 49.91713496 64.95691042 51.375 65.4375 C52.18710938 65.70433594 52.99921875 65.97117187 53.8359375 66.24609375 C56 67 56 67 58 68 C56.63558035 77.5854798 49.26083307 85.98971463 42 92 C25.11112537 104.31319779 8.58945315 107.7386491 -12 106 C-28.0488058 103.45939352 -42.81346367 93.69182712 -52.515625 80.7734375 C-59.26034655 71.17945159 -65.44078688 59.00655732 -64 47 C-63 46 -63 46 -60.49609375 45.90234375 C-57.6640625 45.93489583 -54.83203125 45.96744792 -52 46 C-50.68 51.28 -49.36 56.56 -48 62 C-45.36 60.68 -42.72 59.36 -40 58 C-40.33 57.01 -40.66 56.02 -41 55 C-43.71018692 44.04226582 -43.15300395 31.33809912 -37.55859375 21.453125 C-30.36285921 10.43413476 -21.15310749 3.07390422 -8.2734375 0.296875 C-5.53708198 -0.06044978 -2.75958739 0 0 0 Z " fill="#1BD96A" transform="translate(64,22)"/>
<path d="M0 0 C12.99001276 9.56209273 22.2874672 23.63452438 25.6184082 39.47998047 C26.31236116 44.06282268 26.24703456 48.62510486 26.1875 53.25 C26.1865332 54.70019531 26.1865332 54.70019531 26.18554688 56.1796875 C26.15808214 60.61066494 25.97048765 64.66112154 25 69 C20.86645178 68.51775271 17.04458076 68.01114519 13 67 C13.33 60.07 13.66 53.14 14 46 C10.7 46.66 7.4 47.32 4 48 C4.05220703 49.12535156 4.05220703 49.12535156 4.10546875 50.2734375 C4.43291801 62.65413791 1.29233224 72.43473618 -6.69921875 82.04296875 C-10.3879591 85.9306524 -14.12831688 88.75153087 -19 91 C-22 90 -22 90 -23.203125 88.2578125 C-23.54859375 87.55398437 -23.8940625 86.85015625 -24.25 86.125 C-24.60578125 85.42632812 -24.9615625 84.72765625 -25.328125 84.0078125 C-26 82 -26 82 -25 79 C-23.56389203 78.06485993 -22.12683645 77.1311219 -20.68359375 76.20703125 C-14.00542512 71.41920269 -11.0468845 64.78278681 -9 57 C-8.05896215 49.33726324 -10.38255123 41.84264172 -14.875 35.625 C-19.24056968 30.29407093 -23.66188466 27.48553543 -30 25 C-29.01 21.37 -28.02 17.74 -27 14 C-21.55741481 12.6393537 -19.52313172 14.41481255 -14.82421875 17.125 C-8.21855999 21.51049959 -3.42413553 26.86638432 0 34 C0 34.66 0 35.32 0 36 C3.3 35.34 6.6 34.68 10 34 C2.60815313 18.7525041 -6.99154024 9.90579333 -22.67578125 3.76171875 C-34.42396015 -0.08852476 -47.8470251 0.96957809 -59 6 C-59.78632812 6.350625 -60.57265625 6.70125 -61.3828125 7.0625 C-75.42512121 14.10811831 -83.057645 25.31352912 -88.01953125 39.765625 C-89.13607111 43.26094171 -89.13607111 43.26094171 -90 48 C-93.96 47.67 -97.92 47.34 -102 47 C-102.57721715 32.42061211 -95.00246948 19.54162614 -86.02734375 8.59375 C-63.67242956 -15.27597357 -26.56821808 -17.6907194 0 0 Z " fill="#1BD96A" transform="translate(102,11)"/>
</svg>
